<?xml version="1.0" standalone="no"?>
<!DOCTYPE svg PUBLIC "-//W3C//DTD SVG 20010904//EN"
 "http://www.w3.org/TR/2001/REC-SVG-20010904/DTD/svg10.dtd">
<svg version="1.0" xmlns="http://www.w3.org/2000/svg"
 width="522.000000pt" height="294.000000pt" viewBox="0 0 402.000000 294.000000"
 preserveAspectRatio="xMidYMid meet">
<metadata>
Created by potrace 1.10, written by Peter Selinger 2001-2011
</metadata>
<g transform="translate(0.000000,294.000000) scale(0.100000,-0.100000)"
fill="#000000" stroke="none">
<path d="M2343 2170 c-26 -11 -40 -35 -51 -87 -9 -43 -15 -45 -169 -58 -72 -6
-83 -5 -83 8 0 28 -44 70 -73 70 -39 0 -43 -8 -24 -48 9 -20 17 -40 17 -45 0
-5 -26 -14 -57 -20 -72 -15 -133 -39 -133 -52 0 -6 9 -7 23 -3 45 14 177 39
182 34 3 -3 15 -45 27 -92 l23 -86 -35 -36 c-19 -20 -44 -35 -57 -35 -27 0
-89 61 -118 115 -18 32 -24 36 -55 33 l-35 -3 3 -60 c2 -43 -1 -66 -12 -80
-16 -20 -17 -19 -47 15 -16 19 -33 47 -36 63 -6 29 -39 45 -69 33 -12 -5 -15
-14 -10 -41 6 -29 3 -36 -16 -48 -13 -8 -37 -17 -54 -20 -26 -5 -36 0 -65 29
-19 20 -46 42 -61 50 -51 26 -139 12 -181 -30 -37 -37 -8 -130 50 -159 92 -47
223 -13 223 57 0 20 9 25 64 40 l63 17 38 -25 c21 -14 51 -26 67 -26 34 0 78
39 78 70 0 28 7 26 56 -20 37 -34 50 -40 86 -40 26 0 55 8 73 20 17 11 38 25
49 32 15 11 19 10 24 -2 3 -8 20 -30 38 -47 26 -27 40 -33 73 -33 66 0 92 17
159 110 1 2 13 -9 26 -25 21 -26 26 -28 57 -19 25 8 33 15 32 30 -9 63 -6 96
7 105 35 22 46 9 101 -119 27 -63 69 -102 109 -102 40 0 97 52 111 101 14 44
19 46 55 23 17 -12 38 -15 71 -11 38 4 54 12 85 46 22 23 49 41 60 41 22 0 78
30 78 42 0 20 30 4 70 -38 97 -99 165 -100 215 -3 9 17 20 27 25 23 4 -5 25
-43 46 -84 61 -119 79 -140 125 -140 22 0 39 5 39 11 0 6 -14 30 -30 54 -45
65 -85 148 -73 152 44 15 100 53 113 76 15 27 14 29 -19 59 -30 27 -39 30 -80
25 -25 -2 -54 -8 -63 -12 -13 -5 -20 0 -28 19 -8 21 -16 26 -45 26 -30 0 -35
-3 -34 -22 0 -13 6 -39 13 -58 11 -29 10 -42 -2 -80 -19 -55 -40 -90 -56 -90
-32 1 -136 126 -136 164 0 35 -28 66 -59 66 -28 0 -57 -21 -45 -33 3 -3 -13
-15 -35 -27 -47 -24 -81 -71 -81 -113 0 -28 -47 -87 -69 -87 -18 0 -50 51 -71
116 l-22 64 -39 0 c-43 0 -44 -2 -28 -66 21 -81 -22 -204 -71 -204 -13 0 -28
19 -49 62 -17 33 -31 69 -31 78 0 26 -48 69 -86 76 -24 4 -45 0 -75 -16 -32
-16 -44 -18 -50 -9 -12 20 -1 34 45 57 52 25 113 76 121 102 4 13 22 22 60 30
30 6 55 16 55 21 0 11 -14 11 -64 -1 -36 -8 -43 -6 -75 22 -34 30 -126 78
-146 77 -5 0 -20 -4 -32 -9z m120 -56 c21 -14 36 -31 34 -37 -5 -15 -118 -30
-130 -18 -14 14 19 81 40 81 10 0 35 -12 56 -26z m47 -82 c0 -20 -108 -102
-134 -102 -7 0 -18 81 -12 88 15 14 146 27 146 14z m-220 -62 c0 -21 5 -61 11
-89 9 -43 8 -54 -10 -89 -51 -99 -101 -126 -140 -75 -24 29 -96 251 -86 261 8
8 135 29 188 31 37 1 37 1 37 -39z m1308 14 c12 -8 22 -21 22 -28 0 -17 -39
-52 -72 -65 -24 -9 -29 -7 -39 10 -18 35 17 98 56 99 6 0 21 -7 33 -16z m-488
-52 c0 -16 -32 -52 -46 -52 -18 0 -18 10 2 38 14 21 44 31 44 14z m-1735 -166
c21 -17 27 -28 20 -35 -14 -14 -75 22 -75 44 0 22 21 18 55 -9z m-80 -30 c20
-14 56 -28 81 -32 48 -7 56 -24 27 -56 -21 -24 -79 -23 -119 1 -33 20 -60 71
-50 96 8 21 19 19 61 -9z"/>
<path d="M3835 2091 c-3 -6 -3 -15 0 -21 3 -5 -9 -16 -28 -23 -38 -16 -87 -70
-87 -96 0 -46 58 -54 114 -16 20 14 40 25 44 25 5 0 33 -24 64 -54 65 -64 112
-79 154 -51 26 17 84 126 84 158 0 25 -27 21 -36 -5 -30 -98 -46 -128 -69
-128 -29 0 -123 99 -130 138 -12 57 -29 77 -67 80 -20 2 -39 -2 -43 -7z m10
-115 c-15 -23 -45 -36 -45 -20 0 11 23 49 34 56 21 14 28 -10 11 -36z"/>
<path d="M2725 2021 c-3 -5 -2 -12 3 -15 12 -7 52 4 52 15 0 12 -47 12 -55 0z"/>
<path d="M902 1959 c-22 -8 -23 -12 -15 -71 16 -127 3 -227 -35 -261 -26 -23
-57 -4 -112 68 -25 32 -66 80 -91 107 -43 45 -49 48 -97 48 -43 0 -54 -4 -71
-26 -20 -26 -20 -44 0 -44 5 0 14 11 19 25 17 44 27 36 135 -94 87 -103 123
-131 173 -131 70 0 123 59 137 153 4 26 11 47 16 47 5 0 17 -17 28 -37 10 -21
44 -78 75 -128 30 -49 52 -93 48 -97 -4 -4 -54 -14 -112 -23 -371 -54 -558
-104 -619 -166 -41 -40 -30 -65 45 -106 232 -127 723 -155 832 -47 29 29 32
38 32 91 0 43 -9 80 -35 143 -23 57 -30 87 -23 91 6 4 45 10 87 13 188 16 211
19 211 27 0 5 -8 9 -17 9 -29 0 -245 -20 -279 -25 -30 -5 -33 -2 -92 92 -77
124 -136 237 -152 288 -18 60 -41 74 -88 54z m261 -532 c33 -67 30 -87 -3 -30
-31 51 -48 63 -88 63 -74 0 -89 -33 -47 -100 30 -47 31 -53 8 -47 -21 4 -73
-19 -73 -33 0 -6 -13 -10 -29 -10 -20 0 -36 -9 -50 -25 l-19 -26 -91 26 c-99
29 -148 29 -165 3 -16 -26 8 -44 90 -73 86 -30 64 -32 -42 -4 -86 22 -194 70
-214 94 -7 8 -10 25 -6 39 15 61 188 114 561 170 134 21 135 21 168 -47z
m-366 -284 c-4 -3 -10 -3 -14 0 -3 4 0 7 7 7 7 0 10 -3 7 -7z"/>
</g>
</svg>
